{"title":"Kajaki.2014.BRRip.XviD.AC3-EVO","uid":12169651,"size":1487668858,"categoryP":"video","categoryS":"movies","magnet":"?xt=urn:btih:e5702f621c11ccce7e01ffa242d676b54919ebe3&amp;dn=Kajaki.2014.BRRip.XviD.AC3-EVO&amp;tr=udp%3A%2F%2Ftracker.openbittorrent.com%3A80&amp;tr=udp%3A%2F%2Fopen.demonii.com%3A1337&amp;tr=udp%3A%2F%2Ftracker.coppersurfer.tk%3A6969&amp;tr=udp%3A%2F%2Fexodus.desync.com%3A6969","seeders":0,"leechers":0,"uploader":null,"files":1,"time":1438113144,"description":"General\nComplete name                  : Kajaki.2014.BRRip.XviD.AC3-EVO.avi\nFormat                         : AVI\nFormat/Info                    : Audio Video Interleave\nFile size                      : 1.39 GiB\nDuration                       : 1h 48mn\nOverall bit rate               : 1 832 Kbps\nWriting library                : VirtualDub build 32593/release\n\nVideo\nID                             : 0\nFormat                         : MPEG-4 Visual\nFormat profile                 : Advanced Simple@L5\nFormat settings, BVOP          : 2\nFormat settings, QPel          : No\nFormat settings, GMC           : No warppoints\nFormat settings, Matrix        : Default (H.263)\nMuxing mode                    : Packed bitstream\nCodec ID                       : XVID\nCodec ID/Hint                  : XviD\nDuration                       : 1h 48mn\nBit rate                       : 1 439 Kbps\nWidth                          : 720 pixels\nHeight                         : 304 pixels\nDisplay aspect ratio           : 2.35:1\nFrame rate                     : 24.000 fps\nColor space                    : YUV\nChroma subsampling             : 4:2:0\nBit depth                      : 8 bits\nScan type                      : Progressive\nCompression mode               : Lossy\nBits/(Pixel*Frame)             : 0.274\nStream size                    : 1.09 GiB (79%)\nWriting library                : XviD 66\n\nAudio\nID                             : 1\nFormat                         : AC-3\nFormat/Info                    : Audio Coding 3\nMode extension                 : CM (complete main)\nFormat settings, Endianness    : Big\nCodec ID                       : 2000\nDuration                       : 1h 48mn\nBit rate mode                  : Constant\nBit rate                       : 384 Kbps\nChannel(s)                     : 6 channels\nChannel positions              : Front: L C R, Side: L R, LFE\nSampling rate                  : 48.0 KHz\nBit depth                      : 16 bits\nCompression mode               : Lossy\nStream size                    : 297 MiB (21%)\nAlignment                      : Aligned on interleaves\nInterleave, duration           : 42 ms (1.00 video frame)\nInterleave, preload duration   : 512 ms","torrent":{"xt":"urn:btih:e5702f621c11ccce7e01ffa242d676b54919ebe3","amp;dn":"Kajaki.2014.BRRip.XviD.AC3-EVO","amp;tr":["udp%3A%2F%2Ftracker.openbittorrent.com%3A80","udp%3A%2F%2Fopen.demonii.com%3A1337","udp%3A%2F%2Ftracker.coppersurfer.tk%3A6969","udp%3A%2F%2Fexodus.desync.com%3A6969"],"infoHash":"e5702f621c11ccce7e01ffa242d676b54919ebe3","infoHashBuffer":{"type":"Buffer","data":[229,112,47,98,28,17,204,206,126,1,255,162,66,214,118,181,73,25,235,227]},"announce":[],"urlList":[]}}